<svg width="112" height="112" viewBox="0 0 112 112" fill="none" xmlns="http://www.w3.org/2000/svg">
<g clip-path="url(#clip0_27_2)">
<path d="M55.9993 103.798L100.177 59.6196C105.987 53.8105 109.186 46.0771 109.186 37.8414C109.186 29.6057 105.987 21.8721 100.177 16.0632C94.3609 10.2449 86.6275 7.04154 78.3992 7.04154C71.0726 7.04154 63.9158 9.76322 58.1796 14.7715L55.9993 16.8118L53.7481 14.708C48.0828 9.76278 40.9279 7.04132 33.5994 7.04132C25.3711 7.04132 17.6375 10.2445 11.8211 16.063C6.01205 21.8721 2.81262 29.6055 2.81262 37.8412C2.81262 46.0769 6.01205 53.8123 11.8209 59.6194L55.9993 103.798Z" fill="#F63A2D"/>
<path d="M55.9993 107.759L102.158 61.6C115.281 48.4774 115.281 27.205 102.158 14.0824C95.5966 7.52104 86.9989 4.24133 78.3992 4.24133C70.3538 4.24133 62.3739 7.22988 55.9993 12.9736C49.6228 7.22988 41.6448 4.24133 33.5994 4.24133C24.9997 4.24133 16.4018 7.52104 9.84059 14.0824C-3.2802 27.2032 -3.2802 48.4774 9.84059 61.6002L55.9993 107.759ZM13.7997 18.0416C19.088 12.7533 26.1197 9.84131 33.5994 9.84131C40.4257 9.84131 46.8116 12.3707 51.9076 16.817L55.9993 20.6436L60.093 16.817C65.1889 12.3725 71.5749 9.84131 78.3992 9.84131C85.8789 9.84131 92.9088 12.7533 98.1989 18.0416C109.117 28.9578 109.115 46.7228 98.1989 57.6391L55.9993 99.8384L13.7997 57.6408C2.8835 46.7226 2.8835 28.9595 13.7997 18.0416Z" fill="black"/>
</g>
<defs>
<clipPath id="clip0_27_2">
<rect width="112" height="112" fill="white"/>
</clipPath>
</defs>
</svg>
